<svg width="14" height="12" viewBox="0 0 14 12" fill="none" xmlns="http://www.w3.org/2000/svg">
<path fill-rule="evenodd" clip-rule="evenodd" d="M12.5792 4.42283V0.166626H11.4908V4.42283H10.9636C10.5033 4.42283 10.1302 4.79592 10.1302 5.25616V6.89987C10.1302 7.36011 10.5033 7.7332 10.9636 7.7332H11.4908V11.5952H12.5792V7.7332H13.1064C13.5667 7.7332 13.9397 7.36011 13.9397 6.89987V5.25616C13.9397 4.79592 13.5667 4.42283 13.1064 4.42283H12.5792ZM7.8173 0.166626H6.72886V1.90052H6.20165C5.74142 1.90052 5.36832 2.27361 5.36832 2.73385V4.37756C5.36832 4.8378 5.74142 5.2109 6.20165 5.2109H6.72886V11.5952H7.8173V5.2109H8.34451C8.80475 5.2109 9.17784 4.8378 9.17784 4.37756V2.73385C9.17784 2.27361 8.80475 1.90052 8.34451 1.90052H7.8173V0.166626ZM3.05539 6.53843V0.166626H1.96696V6.53843H1.43975C0.979511 6.53843 0.606415 6.91152 0.606415 7.37176V9.00899C0.606415 9.46923 0.979511 9.84233 1.43975 9.84233H1.96696V11.5904L3.05539 11.5952V9.84233H3.58261C4.04284 9.84233 4.41594 9.46923 4.41594 9.00899V7.37176C4.41594 6.91152 4.04284 6.53843 3.58261 6.53843H3.05539Z" fill="#2D3540"/>
</svg>
